<svg width="21" height="20" viewBox="0 0 21 20" fill="none" xmlns="http://www.w3.org/2000/svg">
<g clip-path="url(#clip0_2466_71252)">
<path d="M20.4663 5.88005C20.4194 4.81738 20.2476 4.0868 20.0014 3.45374C19.7474 2.78176 19.3567 2.18014 18.8449 1.68002C18.3447 1.1721 17.7392 0.777435 17.075 0.527447C16.4382 0.281274 15.7115 0.109427 14.6488 0.0625732C13.5782 0.0117516 13.2383 0 10.5229 0C7.80757 0 7.46769 0.0117516 6.40104 0.0586052C5.33837 0.105459 4.60779 0.277459 3.97488 0.523479C3.30276 0.777435 2.70114 1.16814 2.20101 1.68002C1.6931 2.18014 1.29858 2.78573 1.04844 3.44992C0.80227 4.0868 0.630423 4.81341 0.583569 5.87609C0.532748 6.9467 0.520996 7.28658 0.520996 10.002C0.520996 12.7173 0.532748 13.0572 0.579601 14.1239C0.626455 15.1865 0.798455 15.9171 1.04463 16.5502C1.29858 17.2221 1.6931 17.8238 2.20101 18.3239C2.70114 18.8318 3.30672 19.2265 3.97092 19.4765C4.60779 19.7226 5.3344 19.8945 6.39723 19.9413C7.46372 19.9883 7.80375 19.9999 10.5191 19.9999C13.2345 19.9999 13.5744 19.9883 14.641 19.9413C15.7037 19.8945 16.4343 19.7226 17.0672 19.4765C18.4113 18.9568 19.474 17.8941 19.9936 16.5502C20.2396 15.9133 20.4116 15.1865 20.4585 14.1239C20.5053 13.0572 20.5171 12.7173 20.5171 10.002C20.5171 7.28658 20.5131 6.9467 20.4663 5.88005ZM18.6652 14.0457C18.6222 15.0225 18.4581 15.5499 18.3214 15.9015C17.9853 16.7728 17.2938 17.4643 16.4225 17.8004C16.0709 17.9372 15.5396 18.1012 14.5667 18.1441C13.5118 18.1911 13.1954 18.2027 10.5269 18.2027C7.85839 18.2027 7.53804 18.1911 6.48697 18.1441C5.51022 18.1012 4.98277 17.9372 4.63114 17.8004C4.19755 17.6402 3.80288 17.3862 3.48254 17.0541C3.15044 16.7298 2.89649 16.3391 2.73624 15.9055C2.59949 15.5539 2.43543 15.0225 2.39254 14.0497C2.34554 12.9948 2.33394 12.6783 2.33394 10.0097C2.33394 7.34122 2.34554 7.02087 2.39254 5.96995C2.43543 4.99319 2.59949 4.46575 2.73624 4.11412C2.89649 3.68038 3.15044 3.28586 3.48651 2.96536C3.81067 2.63327 4.20137 2.37931 4.63511 2.21921C4.98674 2.08247 5.51815 1.9184 6.49094 1.87537C7.54583 1.82851 7.86236 1.81676 10.5307 1.81676C13.2032 1.81676 13.5196 1.82851 14.5707 1.87537C15.5474 1.9184 16.0749 2.08247 16.4265 2.21921C16.8601 2.37931 17.2547 2.63327 17.5751 2.96536C17.9072 3.28967 18.1611 3.68038 18.3214 4.11412C18.4581 4.46575 18.6222 4.99701 18.6652 5.96995C18.7121 7.02484 18.7238 7.34122 18.7238 10.0097C18.7238 12.6783 18.7121 12.9908 18.6652 14.0457Z" fill="#4E5566"/>
<path d="M10.5225 4.86423C7.68609 4.86423 5.38477 7.1654 5.38477 10.002C5.38477 12.8385 7.68609 15.1397 10.5225 15.1397C13.359 15.1397 15.6602 12.8385 15.6602 10.002C15.6602 7.1654 13.359 4.86423 10.5225 4.86423ZM10.5225 13.3347C8.68238 13.3347 7.18978 11.8422 7.18978 10.002C7.18978 8.16169 8.68238 6.66924 10.5225 6.66924C12.3628 6.66924 13.8552 8.16169 13.8552 10.002C13.8552 11.8422 12.3628 13.3347 10.5225 13.3347Z" fill="#4E5566"/>
<path d="M17.0636 4.6611C17.0636 5.32346 16.5265 5.86053 15.864 5.86053C15.2016 5.86053 14.6646 5.32346 14.6646 4.6611C14.6646 3.99858 15.2016 3.46167 15.864 3.46167C16.5265 3.46167 17.0636 3.99858 17.0636 4.6611Z" fill="#4E5566"/>
</g>
<defs>
<clipPath id="clip0_2466_71252">
<rect width="20" height="20" fill="white" transform="translate(0.486328)"/>
</clipPath>
</defs>
</svg>
