<svg width="21" height="20" viewBox="0 0 21 20" fill="none" xmlns="http://www.w3.org/2000/svg">
<g clip-path="url(#clip0_2439_67950)">
<path d="M18.7285 10.5859H12.8301C11.8608 10.5859 11.0723 11.3745 11.0723 12.3438C11.0723 13.313 11.8608 14.1016 12.8301 14.1016H18.7285C19.6978 14.1016 20.4863 13.313 20.4863 12.3438C20.4863 11.3745 19.6978 10.5859 18.7285 10.5859Z" fill="#4E5566"/>
<path d="M8.14258 5.89844H2.24414C1.27488 5.89844 0.486328 6.68699 0.486328 7.65625C0.486328 8.62551 1.27488 9.41406 2.24414 9.41406H8.14258C9.11184 9.41406 9.90039 8.62551 9.90039 7.65625C9.90039 6.68699 9.11184 5.89844 8.14258 5.89844Z" fill="#4E5566"/>
<path d="M12.8301 9.41406C13.7993 9.41406 14.5879 8.62551 14.5879 7.65625V1.75781C14.5879 0.788555 13.7993 0 12.8301 0C11.8608 0 11.0723 0.788555 11.0723 1.75781V7.65625C11.0723 8.62551 11.8608 9.41406 12.8301 9.41406Z" fill="#4E5566"/>
<path d="M8.14258 10.5859C7.17332 10.5859 6.38477 11.3745 6.38477 12.3438V18.2422C6.38477 19.2114 7.17332 20 8.14258 20C9.11184 20 9.90039 19.2114 9.90039 18.2422V12.3438C9.90039 11.3745 9.11184 10.5859 8.14258 10.5859Z" fill="#4E5566"/>
<path d="M16.3848 9.41406H18.1426C19.4349 9.41406 20.4863 8.36266 20.4863 7.07031C20.4863 5.77797 19.4349 4.72656 18.1426 4.72656C16.8502 4.72656 15.7988 5.77797 15.7988 7.07031V8.82812C15.7988 9.15172 16.0612 9.41406 16.3848 9.41406Z" fill="#4E5566"/>
<path d="M4.58789 10.5859H2.83008C1.53773 10.5859 0.486328 11.6373 0.486328 12.9297C0.486328 14.222 1.53773 15.2734 2.83008 15.2734C4.12242 15.2734 5.17383 14.222 5.17383 12.9297V11.1719C5.17383 10.8483 4.91148 10.5859 4.58789 10.5859Z" fill="#4E5566"/>
<path d="M7.55664 0C6.2643 0 5.21289 1.05141 5.21289 2.34375C5.21289 3.63609 6.2643 4.6875 7.55664 4.6875H9.31445C9.63805 4.6875 9.90039 4.42516 9.90039 4.10156V2.34375C9.90039 1.05141 8.84898 0 7.55664 0Z" fill="#4E5566"/>
<path d="M13.416 15.3125H11.6582C11.3346 15.3125 11.0723 15.5748 11.0723 15.8984V17.6562C11.0723 18.9486 12.1237 20 13.416 20C14.7084 20 15.7598 18.9486 15.7598 17.6562C15.7598 16.3639 14.7084 15.3125 13.416 15.3125Z" fill="#4E5566"/>
</g>
<defs>
<clipPath id="clip0_2439_67950">
<rect width="20" height="20" fill="white" transform="translate(0.486328)"/>
</clipPath>
</defs>
</svg>
