<svg width="21" height="20" viewBox="0 0 21 20" fill="none" xmlns="http://www.w3.org/2000/svg">
<g clip-path="url(#clip0_2466_71233)">
<path d="M20.0743 5.19899C19.8437 4.34222 19.1682 3.66687 18.3116 3.43616C16.7465 3.00784 10.4861 3.00784 10.4861 3.00784C10.4861 3.00784 4.22594 3.00784 2.66085 3.41983C1.8207 3.65039 1.12872 4.34237 0.898161 5.19899C0.486328 6.76393 0.486328 10.0095 0.486328 10.0095C0.486328 10.0095 0.486328 13.2713 0.898161 14.8199C1.12887 15.6765 1.80422 16.352 2.661 16.5828C4.24242 17.0111 10.4863 17.0111 10.4863 17.0111C10.4863 17.0111 16.7465 17.0111 18.3116 16.5991C19.1683 16.3685 19.8437 15.693 20.0744 14.8364C20.4862 13.2713 20.4862 10.0259 20.4862 10.0259C20.4862 10.0259 20.5027 6.76393 20.0743 5.19899Z" fill="#4E5566"/>
<path d="M8.49219 13.0078L13.698 10.0095L8.49219 7.01112V13.0078Z" fill="white"/>
</g>
<defs>
<clipPath id="clip0_2466_71233">
<rect width="20" height="20" fill="white" transform="translate(0.486328)"/>
</clipPath>
</defs>
</svg>
